<svg width="33" height="38" viewBox="0 0 33 38" fill="none" xmlns="http://www.w3.org/2000/svg">
<path d="M28.6549 7.29913C27.9526 6.49005 27.1188 5.84823 26.201 5.41034C25.2833 4.97245 24.2996 4.74707 23.3062 4.74707C22.3128 4.74707 21.3291 4.97245 20.4113 5.41034C19.4935 5.84823 18.6597 6.49005 17.9574 7.29913L16.4999 8.97746L15.0424 7.29913C13.6238 5.66562 11.6998 4.74792 9.69367 4.74792C7.6875 4.74792 5.7635 5.66562 4.34492 7.29913C2.92634 8.93264 2.12939 11.1482 2.12939 13.4583C2.12939 15.7684 2.92634 17.9839 4.34492 19.6175L16.4999 33.6141L28.6549 19.6175C29.3575 18.8088 29.9149 17.8486 30.2952 16.7918C30.6754 15.735 30.8712 14.6022 30.8712 13.4583C30.8712 12.3144 30.6754 11.1816 30.2952 10.1248C29.9149 9.068 29.3575 8.10782 28.6549 7.29913Z" stroke="#1E1E1E" stroke-width="4" stroke-linecap="round" stroke-linejoin="round"/>
</svg>
