<svg width="30" height="30" viewBox="0 0 30 30" fill="none" xmlns="http://www.w3.org/2000/svg">
<path d="M15 7.5C14.3125 7.5 13.724 7.25521 13.2344 6.76562C12.7448 6.27604 12.5 5.6875 12.5 5C12.5 4.3125 12.7448 3.72396 13.2344 3.23438C13.724 2.74479 14.3125 2.5 15 2.5C15.6875 2.5 16.276 2.74479 16.7656 3.23438C17.2552 3.72396 17.5 4.3125 17.5 5C17.5 5.6875 17.2552 6.27604 16.7656 6.76562C16.276 7.25521 15.6875 7.5 15 7.5ZM11.25 27.5V11.25H3.75V8.75H26.25V11.25H18.75V27.5H16.25V20H13.75V27.5H11.25Z" fill="#1D1B20"/>
</svg>
